<?xml version="1.0" encoding="UTF-8" standalone="no"?>
<!DOCTYPE svg PUBLIC "-//W3C//DTD SVG 1.1//EN"
 "http://www.w3.org/Graphics/SVG/1.1/DTD/svg11.dtd">
<!-- Generated by graphviz version 2.36.0 (20140111.2315)
 -->
<!-- Title: G Pages: 1 -->
<svg width="318pt" height="294pt"
 viewBox="0.00 0.00 318.00 294.00" xmlns="http://www.w3.org/2000/svg" xmlns:xlink="http://www.w3.org/1999/xlink">
<g id="graph0" class="graph" transform="scale(1 1) rotate(0) translate(4 290)">
<title>G</title>
<polygon fill="white" stroke="none" points="-4,4 -4,-290 314,-290 314,4 -4,4"/>
<g id="clust1" class="cluster"><title>cluster_Global</title>
<path fill="none" stroke="gray" d="M20,-8C20,-8 290,-8 290,-8 296,-8 302,-14 302,-20 302,-20 302,-266 302,-266 302,-272 296,-278 290,-278 290,-278 20,-278 20,-278 14,-278 8,-272 8,-266 8,-266 8,-20 8,-20 8,-14 14,-8 20,-8"/>
<text text-anchor="middle" x="155" y="-265.2" font-family="Times,serif" font-size="11.00" fill="gray">Global</text>
</g>
<g id="clust2" class="cluster"><title>cluster_\oEmbed</title>
<path fill="none" stroke="gray" d="M28,-16C28,-16 282,-16 282,-16 288,-16 294,-22 294,-28 294,-28 294,-238 294,-238 294,-244 288,-250 282,-250 282,-250 28,-250 28,-250 22,-250 16,-244 16,-238 16,-238 16,-28 16,-28 16,-22 22,-16 28,-16"/>
<text text-anchor="middle" x="155" y="-237.2" font-family="Times,serif" font-size="11.00" fill="gray">oEmbed</text>
</g>
<!-- \\oEmbed\\oEmbedObject -->
<g id="node1" class="node"><title>\\oEmbed\\oEmbedObject</title>
<polygon fill="none" stroke="black" points="122,-141 24,-141 24,-105 122,-105 122,-141"/>
<text text-anchor="middle" x="73" y="-120.2" font-family="Courier,monospace" font-size="11.00">oEmbedObject</text>
</g>
<!-- \\oEmbed\\oEmbedPhoto -->
<g id="node2" class="node"><title>\\oEmbed\\oEmbedPhoto</title>
<polygon fill="none" stroke="black" points="285.5,-222 194.5,-222 194.5,-186 285.5,-186 285.5,-222"/>
<text text-anchor="middle" x="240" y="-201.2" font-family="Courier,monospace" font-size="11.00">oEmbedPhoto</text>
</g>
<!-- \\oEmbed\\oEmbedPhoto&#45;&gt;\\oEmbed\\oEmbedObject -->
<g id="edge1" class="edge"><title>\\oEmbed\\oEmbedPhoto&#45;&gt;\\oEmbed\\oEmbedObject</title>
<path fill="none" stroke="black" d="M201.971,-185.822C177.769,-173.941 145.974,-158.333 120.132,-145.647"/>
<polygon fill="none" stroke="black" points="121.425,-142.382 110.906,-141.117 118.34,-148.666 121.425,-142.382"/>
</g>
<!-- \\oEmbed\\oEmbedVideo -->
<g id="node3" class="node"><title>\\oEmbed\\oEmbedVideo</title>
<polygon fill="none" stroke="black" points="285.5,-168 194.5,-168 194.5,-132 285.5,-132 285.5,-168"/>
<text text-anchor="middle" x="240" y="-147.2" font-family="Courier,monospace" font-size="11.00">oEmbedVideo</text>
</g>
<!-- \\oEmbed\\oEmbedVideo&#45;&gt;\\oEmbed\\oEmbedObject -->
<g id="edge2" class="edge"><title>\\oEmbed\\oEmbedVideo&#45;&gt;\\oEmbed\\oEmbedObject</title>
<path fill="none" stroke="black" d="M194.349,-142.693C175.243,-139.567 152.681,-135.875 132.285,-132.538"/>
<polygon fill="none" stroke="black" points="132.594,-129.042 122.16,-130.881 131.463,-135.95 132.594,-129.042"/>
</g>
<!-- \\oEmbed\\oEmbedRich -->
<g id="node4" class="node"><title>\\oEmbed\\oEmbedRich</title>
<polygon fill="none" stroke="black" points="282,-114 198,-114 198,-78 282,-78 282,-114"/>
<text text-anchor="middle" x="240" y="-93.2" font-family="Courier,monospace" font-size="11.00">oEmbedRich</text>
</g>
<!-- \\oEmbed\\oEmbedRich&#45;&gt;\\oEmbed\\oEmbedObject -->
<g id="edge3" class="edge"><title>\\oEmbed\\oEmbedRich&#45;&gt;\\oEmbed\\oEmbedObject</title>
<path fill="none" stroke="black" d="M197.789,-102.744C178.013,-105.98 153.971,-109.914 132.355,-113.451"/>
<polygon fill="none" stroke="black" points="131.597,-110.028 122.293,-115.097 132.727,-116.937 131.597,-110.028"/>
</g>
<!-- \\oEmbed\\oEmbedLink -->
<g id="node5" class="node"><title>\\oEmbed\\oEmbedLink</title>
<polygon fill="none" stroke="black" points="282,-60 198,-60 198,-24 282,-24 282,-60"/>
<text text-anchor="middle" x="240" y="-39.2" font-family="Courier,monospace" font-size="11.00">oEmbedLink</text>
</g>
<!-- \\oEmbed\\oEmbedLink&#45;&gt;\\oEmbed\\oEmbedObject -->
<g id="edge4" class="edge"><title>\\oEmbed\\oEmbedLink&#45;&gt;\\oEmbed\\oEmbedObject</title>
<path fill="none" stroke="black" d="M201.971,-60.178C177.769,-72.059 145.974,-87.6671 120.132,-100.353"/>
<polygon fill="none" stroke="black" points="118.34,-97.3341 110.906,-104.883 121.425,-103.618 118.34,-97.3341"/>
</g>
</g>
</svg>
